<mxfile host="app.diagrams.net" agent="Mozilla/5.0 (Windows NT 10.0; Win64; x64; rv:138.0) Gecko/20100101 Firefox/138.0" version="26.2.14">
  <diagram name="Page-1" id="tGjCxVL7hpo2FjN-qWHm">
    <mxGraphModel dx="925" dy="554" grid="1" gridSize="10" guides="1" tooltips="1" connect="1" arrows="1" fold="1" page="1" pageScale="1" pageWidth="3300" pageHeight="4681" math="0" shadow="0">
      <root>
        <mxCell id="0" />
        <mxCell id="1" parent="0" />
        <mxCell id="nqzERDMHoJk18Q7nbyuS-44" value="2b Check if Early Alert" style="text;html=1;align=left;verticalAlign=top;whiteSpace=wrap;rounded=0;dashed=1;fillColor=#f5f5f5;fontColor=#333333;strokeColor=#666666;strokeWidth=2;" name="text" vertex="1" parent="1">
          <mxGeometry x="640" y="690" width="310" height="210" as="geometry" />
        </mxCell>
        <mxCell id="nqzERDMHoJk18Q7nbyuS-43" value="2a Modeling" style="text;html=1;align=left;verticalAlign=top;whiteSpace=wrap;rounded=0;dashed=1;fillColor=#f5f5f5;fontColor=#333333;strokeColor=#666666;strokeWidth=2;" name="text" vertex="1" parent="1">
          <mxGeometry x="640" y="470" width="310" height="210" as="geometry" />
        </mxCell>
        <mxCell id="nqzERDMHoJk18Q7nbyuS-42" value="1c Generate Fuzzy Rules" style="text;html=1;align=left;verticalAlign=top;whiteSpace=wrap;rounded=0;dashed=1;fillColor=#f5f5f5;fontColor=#333333;strokeColor=#666666;strokeWidth=2;" name="text" vertex="1" parent="1">
          <mxGeometry x="310" y="300" width="330" height="110" as="geometry" />
        </mxCell>
        <mxCell id="nqzERDMHoJk18Q7nbyuS-41" value="1d Self-organizing Fuzzy Logic Modeling" style="text;html=1;align=left;verticalAlign=top;whiteSpace=wrap;rounded=0;dashed=1;fillColor=#f5f5f5;fontColor=#333333;strokeColor=#666666;strokeWidth=2;" name="text" vertex="1" parent="1">
          <mxGeometry x="650" y="300" width="280" height="160" as="geometry" />
        </mxCell>
        <mxCell id="nqzERDMHoJk18Q7nbyuS-40" value="1d FCM and FKM" style="text;html=1;align=left;verticalAlign=top;whiteSpace=wrap;rounded=0;dashed=1;fillColor=#f5f5f5;fontColor=#333333;strokeColor=#666666;strokeWidth=2;" name="text" vertex="1" parent="1">
          <mxGeometry x="940" y="80" width="110" height="330" as="geometry" />
        </mxCell>
        <mxCell id="nqzERDMHoJk18Q7nbyuS-39" value="1d Pre-process" style="text;html=1;align=left;verticalAlign=top;whiteSpace=wrap;rounded=0;dashed=1;fillColor=#f5f5f5;fontColor=#333333;strokeColor=#666666;strokeWidth=2;" name="text" vertex="1" parent="1">
          <mxGeometry x="640" y="80" width="290" height="110" as="geometry" />
        </mxCell>
        <mxCell id="nqzERDMHoJk18Q7nbyuS-3" style="edgeStyle=orthogonalEdgeStyle;rounded=0;orthogonalLoop=1;jettySize=auto;html=1;exitX=1;exitY=0.5;exitDx=0;exitDy=0;entryX=0;entryY=0.5;entryDx=0;entryDy=0;" edge="1" parent="1" source="nqzERDMHoJk18Q7nbyuS-1" target="nqzERDMHoJk18Q7nbyuS-2">
          <mxGeometry relative="1" as="geometry" />
        </mxCell>
        <mxCell id="nqzERDMHoJk18Q7nbyuS-1" value="data:numeric&#xa;Raw Physiological&#xa;Data" style="rectangle;fillColor=#fff2cc;strokeColor=#d6b656;" name="data" vertex="1" parent="1">
          <mxGeometry x="590" y="110" width="100" height="50" as="geometry" />
        </mxCell>
        <mxCell id="nqzERDMHoJk18Q7nbyuS-5" style="edgeStyle=orthogonalEdgeStyle;rounded=0;orthogonalLoop=1;jettySize=auto;html=1;exitX=1;exitY=0.5;exitDx=0;exitDy=0;entryX=0;entryY=0.5;entryDx=0;entryDy=0;" edge="1" parent="1" source="nqzERDMHoJk18Q7nbyuS-2" target="nqzERDMHoJk18Q7nbyuS-4">
          <mxGeometry relative="1" as="geometry" />
        </mxCell>
        <mxCell id="nqzERDMHoJk18Q7nbyuS-2" value="transform" style="rounded=1;whiteSpace=wrap;html=1;arcSize=50;fillColor=#f8cecc;strokeColor=#b85450;" name="transform" vertex="1" parent="1">
          <mxGeometry x="750" y="110" width="100" height="50" as="geometry" />
        </mxCell>
        <mxCell id="nqzERDMHoJk18Q7nbyuS-7" style="edgeStyle=orthogonalEdgeStyle;rounded=0;orthogonalLoop=1;jettySize=auto;html=1;exitX=0.5;exitY=1;exitDx=0;exitDy=0;entryX=0.5;entryY=0;entryDx=0;entryDy=0;" edge="1" parent="1" source="nqzERDMHoJk18Q7nbyuS-4" target="nqzERDMHoJk18Q7nbyuS-6">
          <mxGeometry relative="1" as="geometry" />
        </mxCell>
        <mxCell id="nqzERDMHoJk18Q7nbyuS-4" value="data:numeric&#xa;CleanÂ &#xa;Physiological Data" style="rectangle;fillColor=#fff2cc;strokeColor=#d6b656;" name="data" vertex="1" parent="1">
          <mxGeometry x="910" y="110" width="100" height="50" as="geometry" />
        </mxCell>
        <mxCell id="nqzERDMHoJk18Q7nbyuS-9" style="edgeStyle=orthogonalEdgeStyle;rounded=0;orthogonalLoop=1;jettySize=auto;html=1;entryX=0.5;entryY=0;entryDx=0;entryDy=0;" edge="1" parent="1" source="nqzERDMHoJk18Q7nbyuS-6" target="nqzERDMHoJk18Q7nbyuS-8">
          <mxGeometry relative="1" as="geometry" />
        </mxCell>
        <mxCell id="nqzERDMHoJk18Q7nbyuS-6" value="transform:embed" style="rounded=1;whiteSpace=wrap;html=1;arcSize=50;fillColor=#f8cecc;strokeColor=#b85450;" name="transform" vertex="1" parent="1">
          <mxGeometry x="910" y="220" width="100" height="50" as="geometry" />
        </mxCell>
        <mxCell id="nqzERDMHoJk18Q7nbyuS-11" style="edgeStyle=orthogonalEdgeStyle;rounded=0;orthogonalLoop=1;jettySize=auto;html=1;exitX=0;exitY=0.5;exitDx=0;exitDy=0;entryX=1;entryY=0.5;entryDx=0;entryDy=0;" edge="1" parent="1" source="nqzERDMHoJk18Q7nbyuS-8" target="nqzERDMHoJk18Q7nbyuS-10">
          <mxGeometry relative="1" as="geometry" />
        </mxCell>
        <mxCell id="nqzERDMHoJk18Q7nbyuS-8" value="data:numeric&#xa;Clustered&#xa;Physiological Data" style="rectangle;fillColor=#fff2cc;strokeColor=#d6b656;" name="data" vertex="1" parent="1">
          <mxGeometry x="910" y="330" width="100" height="50" as="geometry" />
        </mxCell>
        <mxCell id="nqzERDMHoJk18Q7nbyuS-16" style="edgeStyle=orthogonalEdgeStyle;rounded=0;orthogonalLoop=1;jettySize=auto;html=1;entryX=0.5;entryY=0;entryDx=0;entryDy=0;" edge="1" parent="1" source="nqzERDMHoJk18Q7nbyuS-10" target="nqzERDMHoJk18Q7nbyuS-15">
          <mxGeometry relative="1" as="geometry" />
        </mxCell>
        <mxCell id="nqzERDMHoJk18Q7nbyuS-10" value="transform:embed" style="rounded=1;whiteSpace=wrap;html=1;arcSize=50;fillColor=#f8cecc;strokeColor=#b85450;" name="transform" vertex="1" parent="1">
          <mxGeometry x="750" y="330" width="100" height="50" as="geometry" />
        </mxCell>
        <mxCell id="nqzERDMHoJk18Q7nbyuS-12" value="model:semantic&#xa;Fuzzy Rules" style="shape=hexagon;perimeter=hexagonPerimeter2;fillColor=#b0e3e6;strokeColor=#0e8088;" name="model" vertex="1" parent="1">
          <mxGeometry x="580" y="330" width="120" height="50" as="geometry" />
        </mxCell>
        <mxCell id="nqzERDMHoJk18Q7nbyuS-14" value="&lt;div&gt;error&lt;/div&gt;&lt;div&gt;--&amp;gt;&lt;/div&gt;" style="text;html=1;align=center;verticalAlign=middle;whiteSpace=wrap;rounded=0;dashed=1;fillColor=#f5f5f5;fontColor=#333333;strokeColor=#666666;strokeWidth=2;" name="text" vertex="1" parent="1">
          <mxGeometry x="700" y="340" width="50" height="30" as="geometry" />
        </mxCell>
        <mxCell id="nqzERDMHoJk18Q7nbyuS-24" style="edgeStyle=orthogonalEdgeStyle;rounded=0;orthogonalLoop=1;jettySize=auto;html=1;exitX=0.5;exitY=1;exitDx=0;exitDy=0;entryX=0.5;entryY=0;entryDx=0;entryDy=0;" edge="1" parent="1" source="nqzERDMHoJk18Q7nbyuS-15" target="nqzERDMHoJk18Q7nbyuS-23">
          <mxGeometry relative="1" as="geometry" />
        </mxCell>
        <mxCell id="nqzERDMHoJk18Q7nbyuS-15" value="data&#xa;Physiological&#xa;Conditions" style="rectangle;fillColor=#fff2cc;strokeColor=#d6b656;" name="data" vertex="1" parent="1">
          <mxGeometry x="750" y="440" width="100" height="50" as="geometry" />
        </mxCell>
        <mxCell id="nqzERDMHoJk18Q7nbyuS-19" style="edgeStyle=orthogonalEdgeStyle;rounded=0;orthogonalLoop=1;jettySize=auto;html=1;entryX=0;entryY=0.5;entryDx=0;entryDy=0;" edge="1" parent="1" source="nqzERDMHoJk18Q7nbyuS-17" target="nqzERDMHoJk18Q7nbyuS-18">
          <mxGeometry relative="1" as="geometry" />
        </mxCell>
        <mxCell id="nqzERDMHoJk18Q7nbyuS-17" value="data&#xa;Knowledge +&#xa;Guidelines" style="rectangle;fillColor=#fff2cc;strokeColor=#d6b656;" name="data" vertex="1" parent="1">
          <mxGeometry x="260" y="330" width="100" height="50" as="geometry" />
        </mxCell>
        <mxCell id="nqzERDMHoJk18Q7nbyuS-20" style="edgeStyle=orthogonalEdgeStyle;rounded=0;orthogonalLoop=1;jettySize=auto;html=1;entryX=0;entryY=0.5;entryDx=0;entryDy=0;" edge="1" parent="1" source="nqzERDMHoJk18Q7nbyuS-18" target="nqzERDMHoJk18Q7nbyuS-12">
          <mxGeometry relative="1" as="geometry" />
        </mxCell>
        <mxCell id="nqzERDMHoJk18Q7nbyuS-18" value="generate:train" style="rounded=1;whiteSpace=wrap;html=1;arcSize=50;fillColor=#e1d5e7;strokeColor=#9673a6;" name="generate:train" vertex="1" parent="1">
          <mxGeometry x="420" y="330" width="100" height="50" as="geometry" />
        </mxCell>
        <mxCell id="nqzERDMHoJk18Q7nbyuS-32" style="edgeStyle=orthogonalEdgeStyle;rounded=0;orthogonalLoop=1;jettySize=auto;html=1;exitX=0.5;exitY=1;exitDx=0;exitDy=0;entryX=0.5;entryY=0;entryDx=0;entryDy=0;" edge="1" parent="1" source="nqzERDMHoJk18Q7nbyuS-23" target="nqzERDMHoJk18Q7nbyuS-31">
          <mxGeometry relative="1" as="geometry" />
        </mxCell>
        <mxCell id="nqzERDMHoJk18Q7nbyuS-23" value="generate:train" style="rounded=1;whiteSpace=wrap;html=1;arcSize=50;fillColor=#e1d5e7;strokeColor=#9673a6;" name="generate:train" vertex="1" parent="1">
          <mxGeometry x="750" y="550" width="100" height="50" as="geometry" />
        </mxCell>
        <mxCell id="nqzERDMHoJk18Q7nbyuS-25" value="data&#xa;Historical Data&#xa;Sets" style="rectangle;fillColor=#fff2cc;strokeColor=#d6b656;" name="data" vertex="1" parent="1">
          <mxGeometry x="590" y="550" width="100" height="50" as="geometry" />
        </mxCell>
        <mxCell id="nqzERDMHoJk18Q7nbyuS-27" value="&lt;div&gt;error&lt;/div&gt;&lt;div&gt;--&amp;gt;&lt;/div&gt;" style="text;html=1;align=center;verticalAlign=middle;whiteSpace=wrap;rounded=0;dashed=1;fillColor=#f5f5f5;fontColor=#333333;strokeColor=#666666;strokeWidth=2;" name="text" vertex="1" parent="1">
          <mxGeometry x="690" y="560" width="60" height="30" as="geometry" />
        </mxCell>
        <mxCell id="nqzERDMHoJk18Q7nbyuS-29" value="data&#xa;Authentic Diagnosis&#xa;Database" style="rectangle;fillColor=#fff2cc;strokeColor=#d6b656;" name="data" vertex="1" parent="1">
          <mxGeometry x="910" y="550" width="100" height="50" as="geometry" />
        </mxCell>
        <mxCell id="nqzERDMHoJk18Q7nbyuS-30" value="&lt;div&gt;error&lt;/div&gt;&lt;div&gt;&amp;lt;--&lt;/div&gt;" style="text;html=1;align=center;verticalAlign=middle;whiteSpace=wrap;rounded=0;dashed=1;fillColor=#f5f5f5;fontColor=#333333;strokeColor=#666666;strokeWidth=2;" name="text" vertex="1" parent="1">
          <mxGeometry x="850" y="560" width="60" height="30" as="geometry" />
        </mxCell>
        <mxCell id="nqzERDMHoJk18Q7nbyuS-34" style="edgeStyle=orthogonalEdgeStyle;rounded=0;orthogonalLoop=1;jettySize=auto;html=1;exitX=0.5;exitY=1;exitDx=0;exitDy=0;entryX=0.5;entryY=0;entryDx=0;entryDy=0;" edge="1" parent="1" source="nqzERDMHoJk18Q7nbyuS-31" target="nqzERDMHoJk18Q7nbyuS-33">
          <mxGeometry relative="1" as="geometry" />
        </mxCell>
        <mxCell id="nqzERDMHoJk18Q7nbyuS-31" value="model:semantic&#xa;Decision Support" style="shape=hexagon;perimeter=hexagonPerimeter2;fillColor=#b0e3e6;strokeColor=#0e8088;" name="model" vertex="1" parent="1">
          <mxGeometry x="740" y="660" width="120" height="50" as="geometry" />
        </mxCell>
        <mxCell id="nqzERDMHoJk18Q7nbyuS-38" style="edgeStyle=orthogonalEdgeStyle;rounded=0;orthogonalLoop=1;jettySize=auto;html=1;exitX=1;exitY=0.5;exitDx=0;exitDy=0;entryX=0;entryY=0.5;entryDx=0;entryDy=0;" edge="1" parent="1" source="nqzERDMHoJk18Q7nbyuS-33" target="nqzERDMHoJk18Q7nbyuS-37">
          <mxGeometry relative="1" as="geometry" />
        </mxCell>
        <mxCell id="nqzERDMHoJk18Q7nbyuS-33" value="infer:deduce" style="rounded=1;whiteSpace=wrap;html=1;arcSize=50;fillColor=#bac8d3;strokeColor=#23445d;" name="infer:deduce" vertex="1" parent="1">
          <mxGeometry x="750" y="780" width="100" height="50" as="geometry" />
        </mxCell>
        <mxCell id="nqzERDMHoJk18Q7nbyuS-36" style="edgeStyle=orthogonalEdgeStyle;rounded=0;orthogonalLoop=1;jettySize=auto;html=1;entryX=0;entryY=0.5;entryDx=0;entryDy=0;" edge="1" parent="1" source="nqzERDMHoJk18Q7nbyuS-35" target="nqzERDMHoJk18Q7nbyuS-33">
          <mxGeometry relative="1" as="geometry" />
        </mxCell>
        <mxCell id="nqzERDMHoJk18Q7nbyuS-35" value="data:numeric&#xa;Raw Physiological&#xa;Data" style="rectangle;fillColor=#fff2cc;strokeColor=#d6b656;" name="data" vertex="1" parent="1">
          <mxGeometry x="590" y="780" width="100" height="50" as="geometry" />
        </mxCell>
        <mxCell id="nqzERDMHoJk18Q7nbyuS-37" value="symbol&#xa;Early Alert" style="rectangle;fillColor=#dae8fc;strokeColor=#6c8ebf;" name="symbol" vertex="1" parent="1">
          <mxGeometry x="910" y="780" width="100" height="50" as="geometry" />
        </mxCell>
      </root>
    </mxGraphModel>
  </diagram>
</mxfile>
